<?xml version="1.0" standalone="no"?>
<!DOCTYPE svg PUBLIC "-//W3C//DTD SVG 20010904//EN"
 "http://www.w3.org/TR/2001/REC-SVG-20010904/DTD/svg10.dtd">
<svg version="1.0" xmlns="http://www.w3.org/2000/svg"
 width="632.000000pt" height="621.000000pt" viewBox="0 0 632.000000 621.000000"
 preserveAspectRatio="xMidYMid meet">

<g transform="translate(0.000000,621.000000) scale(0.100000,-0.100000)"
fill="#000000" stroke="none">
<path d="M669 5617 c-72 -48 -69 -13 -69 -776 0 -662 1 -686 20 -726 11 -22
34 -49 52 -60 32 -19 53 -20 738 -20 l705 0 33 23 c65 47 62 10 62 784 0 670
-1 704 -19 734 -40 66 -14 64 -789 64 l-699 0 -34 -23z"/>
<path d="M2415 5621 c-17 -10 -40 -31 -50 -47 -19 -28 -20 -51 -20 -736 0
-698 0 -707 21 -734 11 -15 33 -37 48 -48 27 -21 36 -21 736 -21 700 0 709 0
736 21 15 11 37 33 48 48 21 27 21 36 21 734 l0 707 -23 33 c-47 65 -10 62
-784 62 -667 0 -705 -1 -733 -19z"/>
<path d="M4163 5625 c-18 -8 -42 -29 -53 -47 -19 -32 -20 -49 -20 -736 0 -774
-3 -737 62 -784 l33 -23 705 0 c685 0 706 1 738 20 18 11 41 38 52 60 19 40
20 64 20 726 0 763 3 728 -69 776 l-34 23 -701 0 c-579 -1 -707 -3 -733 -15z"/>
<path d="M683 3889 c-30 -15 -48 -33 -62 -63 -21 -41 -21 -57 -21 -727 0 -763
-3 -728 69 -776 l34 -23 706 0 c675 0 707 1 735 19 15 10 37 32 47 47 18 28
19 60 19 735 l0 706 -23 34 c-48 72 -13 69 -777 69 -674 0 -686 0 -727 -21z"/>
<path d="M2446 3897 c-24 -8 -51 -26 -70 -50 l-31 -39 0 -708 c0 -705 0 -709
21 -737 12 -15 36 -37 55 -48 33 -19 52 -20 729 -20 773 0 731 -4 782 67 l23
33 0 707 0 706 -31 39 c-19 24 -46 42 -70 50 -55 16 -1353 16 -1408 0z"/>
<path d="M4187 3896 c-46 -17 -64 -32 -83 -67 -12 -24 -14 -140 -14 -729 0
-778 -3 -738 67 -782 l38 -23 695 0 c677 0 696 1 729 20 19 11 43 33 55 48 21
28 21 32 21 737 0 700 0 709 -21 736 -11 15 -33 37 -48 48 -27 21 -38 21 -714
23 -557 2 -694 0 -725 -11z"/>
<path d="M683 2149 c-30 -15 -48 -33 -62 -63 -21 -41 -21 -57 -21 -727 0 -763
-3 -728 69 -776 l34 -23 706 0 c675 0 707 1 735 19 15 10 37 32 47 47 18 28
19 60 19 735 l0 706 -23 34 c-48 72 -13 69 -777 69 -674 0 -686 0 -727 -21z"/>
<path d="M2430 2152 c-19 -9 -45 -32 -57 -51 l-23 -34 0 -706 c0 -675 1 -707
19 -735 10 -15 32 -37 47 -47 28 -18 60 -19 735 -19 l706 0 34 23 c72 48 69
13 69 776 0 671 0 686 -21 727 -15 31 -32 48 -63 63 -41 21 -56 21 -727 21
-631 0 -687 -1 -719 -18z"/>
</g>
</svg>
