<?xml version="1.0" standalone="no"?>
<!DOCTYPE svg PUBLIC "-//W3C//DTD SVG 20010904//EN"
 "http://www.w3.org/TR/2001/REC-SVG-20010904/DTD/svg10.dtd">
<svg version="1.0" xmlns="http://www.w3.org/2000/svg"
 width="512.000000pt" height="512.000000pt" viewBox="0 0 512.000000 512.000000"
 preserveAspectRatio="xMidYMid meet">

<g transform="translate(0.000000,512.000000) scale(0.100000,-0.100000)"
fill="#000000" stroke="none">
<path d="M2480 4288 c-18 -13 -43 -36 -54 -51 -21 -28 -21 -35 -24 -773 l-2
-744 -744 -2 c-738 -3 -745 -3 -773 -24 -98 -73 -98 -195 0 -268 28 -21 35
-21 773 -24 l744 -2 2 -744 c3 -738 3 -745 24 -773 73 -98 195 -98 268 0 21
28 21 35 24 773 l2 744 744 2 c738 3 745 3 773 24 98 73 98 195 0 268 -28 21
-35 21 -773 24 l-744 2 -2 744 c-3 738 -3 745 -24 773 -35 48 -82 73 -134 73
-32 0 -57 -7 -80 -22z"/>
</g>
</svg>
