<?xml version="1.0" standalone="no"?>
<!DOCTYPE svg PUBLIC "-//W3C//DTD SVG 20010904//EN"
 "http://www.w3.org/TR/2001/REC-SVG-20010904/DTD/svg10.dtd">
<svg version="1.0" xmlns="http://www.w3.org/2000/svg"
 width="512.000000pt" height="512.000000pt" viewBox="0 0 512.000000 512.000000"
 preserveAspectRatio="xMidYMid meet">

<g transform="translate(0.000000,512.000000) scale(0.100000,-0.100000)"
fill="#000000" stroke="none">
<path d="M2488 5107 c-47 -18 -96 -59 -128 -107 -14 -21 -67 -123 -119 -227
l-94 -189 -196 -28 c-294 -42 -329 -53 -393 -124 -52 -58 -67 -129 -43 -208
17 -55 31 -72 199 -242 l180 -183 -37 -222 c-42 -250 -44 -274 -21 -342 40
-117 175 -175 302 -131 22 8 126 60 231 115 l192 101 197 -104 c108 -57 214
-109 235 -116 22 -7 67 -10 101 -8 81 5 139 43 175 113 36 69 34 153 -8 397
l-35 198 180 182 c151 154 182 191 197 233 21 61 21 89 2 147 -27 77 -96 132
-195 156 -25 5 -133 23 -241 38 l-196 28 -107 213 c-107 214 -143 265 -210
300 -41 21 -124 26 -168 10z m146 -579 c87 -185 108 -215 159 -238 23 -10 116
-28 207 -40 91 -13 169 -26 173 -30 4 -4 -50 -62 -122 -129 -71 -67 -136 -137
-145 -156 -22 -46 -20 -105 13 -287 15 -87 26 -158 24 -158 -2 0 -71 36 -154
80 -181 96 -215 107 -266 92 -21 -6 -105 -47 -188 -91 -96 -51 -151 -75 -153
-67 -2 7 9 81 23 163 33 200 33 239 -3 289 -16 21 -82 88 -146 148 -64 60
-113 112 -109 116 4 4 82 17 173 30 91 12 184 30 207 40 52 23 76 58 164 244
35 75 67 136 70 136 3 0 36 -64 73 -142z"/>
<path d="M1833 2884 c-17 -9 -39 -24 -48 -34 -45 -50 -44 -28 -45 -1307 l0
-1213 -445 0 -445 0 0 804 0 805 328 3 c373 3 382 5 427 83 48 80 26 168 -54
222 l-34 23 -435 0 c-424 0 -435 -1 -472 -21 -21 -12 -47 -38 -59 -59 -21 -38
-21 -39 -21 -948 l0 -911 -207 -3 c-196 -3 -210 -4 -245 -26 -41 -25 -78 -91
-78 -138 0 -53 40 -117 90 -142 l44 -22 2426 0 2426 0 44 23 c50 24 90 88 90
141 0 47 -37 113 -78 138 -35 22 -49 23 -239 26 l-203 3 0 632 c0 348 -5 650
-10 671 -10 45 -34 81 -74 110 -27 20 -41 21 -459 24 l-432 3 -44 -23 c-67
-34 -86 -67 -86 -143 0 -76 20 -109 85 -142 43 -22 52 -23 367 -23 l323 0 0
-555 0 -555 -445 0 -445 0 0 988 c0 636 -4 1000 -10 1024 -13 45 -77 105 -124
113 -73 14 -147 -23 -176 -88 -19 -40 -20 -77 -20 -1039 l0 -998 -490 0 -490
0 2 1123 3 1122 602 5 c592 5 602 5 630 26 89 67 89 202 1 266 l-33 23 -705 2
c-625 2 -709 1 -737 -13z"/>
</g>
</svg>
