<?xml version="1.0" standalone="no"?>
<!DOCTYPE svg PUBLIC "-//W3C//DTD SVG 20010904//EN"
 "http://www.w3.org/TR/2001/REC-SVG-20010904/DTD/svg10.dtd">
<svg version="1.0" xmlns="http://www.w3.org/2000/svg"
 width="512.000000pt" height="512.000000pt" viewBox="0 0 512.000000 512.000000"
 preserveAspectRatio="xMidYMid meet">

<g transform="translate(0.000000,512.000000) scale(0.100000,-0.100000)"
fill="#000000" stroke="none">
<path d="M1649 4940 c-760 -128 -1345 -716 -1469 -1475 -25 -149 -27 -391 -5
-544 94 -649 550 -1204 1168 -1420 562 -197 1193 -103 1655 246 l85 64 821
-820 c892 -890 839 -844 933 -826 49 9 109 69 118 118 18 94 65 41 -826 933
l-820 821 64 85 c157 208 273 476 322 745 9 49 19 167 22 263 8 244 -20 423
-98 647 -216 617 -773 1076 -1419 1168 -145 20 -415 18 -551 -5z m581 -329
c306 -65 564 -209 777 -435 180 -190 305 -429 365 -696 31 -140 34 -446 5
-580 -41 -194 -118 -378 -225 -539 -69 -105 -230 -273 -341 -356 -158 -119
-379 -217 -591 -262 -122 -26 -440 -25 -560 1 -592 129 -1025 561 -1152 1149
-31 147 -31 427 0 574 134 622 622 1075 1252 1163 104 14 361 4 470 -19z"/>
<path d="M1863 4331 c-82 -52 -102 -159 -42 -235 33 -42 75 -58 183 -67 128
-10 199 -29 306 -80 286 -136 461 -395 488 -725 10 -112 20 -137 76 -178 39
-29 133 -29 172 0 71 53 85 110 64 271 -62 491 -404 878 -889 1004 -46 12
-125 22 -201 25 -114 5 -128 4 -157 -15z"/>
</g>
</svg>
